# xmcd CD database file
#
# Track frame offsets:
#	150
#	12061
#	24066
#	46758
#	65458
#	87123
#	99572
#	110317
#	119974
#	134089
#	144964
#	156770
#	170439
#	183851
#	197596
#	209440
#	220867
#	232280
#	244882
#	254824
#	268849
#	281099
#	294160
#	305318
#
# Disc length: 4249 seconds
#
# Revision: 0
# Processed by: cddbd v1.5.2PL0 Copyright (c) Steve Scherf et al.
# Submitted via: CDex 1.51
#
DISCID=62109718
DTITLE=25 Blues Evergreens - 25 Blues Evergreens [CD 2]
DYEAR=1900
DGENRE=Blues
TTITLE0=John Lee Hooker_I'm in The Mood
TTITLE1=Howlin' Wolf_Spoonful
TTITLE2=John Mayall_Baby What You Want Me To Do
TTITLE3=Muddy Waters_I Got My Mojo Working
TTITLE4=Elmore James_Something Inside Of Me
TTITLE5=Little Walter_I Got To Find My Baby
TTITLE6=Howlin' Wolf_Little Red Rooster
TTITLE7=John Lee Hooker_I Wanna Walk
TTITLE8=Sonny Boy Williamson_Help Me
TTITLE9=Eric Clapton_Snake Drive
TTITLE10=BB King_Dark Is The Night
TTITLE11=Jeff Beck_Jeff Blues
TTITLE12=John Mayall_A Big Man
TTITLE13=Howlin' Wolf_Highway 49
TTITLE14=John Lee Hooker_Crawling King Snake
TTITLE15=Little Walter_As LOng As I Have You
TTITLE16=BB King_Every Day I Have The Blues
TTITLE17=Howlin' Wolg_Back Door Man
TTITLE18=John Lee Hooker_Dimples
TTITLE19=BB King_Whole Lotta Love
TTITLE20=Elmore James_Happy Home
TTITLE21=Sonny Boy Williamson_I Never Do Wrong
TTITLE22=Muddy Waters_Crawling Kinsnake
TTITLE23=John Lee Hooker_Ground Hog Blues
EXTD=
EXTT0=
EXTT1=
EXTT2=
EXTT3=
EXTT4=
EXTT5=
EXTT6=
EXTT7=
EXTT8=
EXTT9=
EXTT10=
EXTT11=
EXTT12=
EXTT13=
EXTT14=
EXTT15=
EXTT16=
EXTT17=
EXTT18=
EXTT19=
EXTT20=
EXTT21=
EXTT22=
EXTT23=
PLAYORDER=
